<svg xmlns="http://www.w3.org/2000/svg" width="900" height="510" viewBox="0 0 900 510">
<rect width="100%" height="100%" fill="#ffffff"/>
<style>text{font-family:Arial,sans-serif;letter-spacing:0}.axis{stroke:#30343b;stroke-width:1.4}.grid{stroke:#d9dde3;stroke-width:1}.tick{font-size:12px;fill:#3e4651}.label{font-size:14px;fill:#20242a}.title{font-size:19px;font-weight:700;fill:#15181d}.legend{font-size:12px;fill:#20242a}</style>
<text x="450.0" y="28" text-anchor="middle" class="title">V81 SCNA KV Pipeline DSP Latency (95% Median CI)</text>
<line x1="82" y1="423.0" x2="702" y2="423.0" class="grid"/>
<text x="72" y="427.0" text-anchor="end" class="tick">0</text>
<line x1="82" y1="350.0" x2="702" y2="350.0" class="grid"/>
<text x="72" y="354.0" text-anchor="end" class="tick">504</text>
<line x1="82" y1="277.0" x2="702" y2="277.0" class="grid"/>
<text x="72" y="281.0" text-anchor="end" class="tick">1008</text>
<line x1="82" y1="204.0" x2="702" y2="204.0" class="grid"/>
<text x="72" y="208.0" text-anchor="end" class="tick">1512</text>
<line x1="82" y1="131.0" x2="702" y2="131.0" class="grid"/>
<text x="72" y="135.0" text-anchor="end" class="tick">2016</text>
<line x1="82" y1="58.0" x2="702" y2="58.0" class="grid"/>
<text x="72" y="62.0" text-anchor="end" class="tick">2520</text>
<line x1="82" y1="58" x2="82" y2="423" class="axis"/>
<line x1="82" y1="423" x2="702" y2="423" class="axis"/>
<text x="82.0" y="446" text-anchor="middle" class="tick">4</text>
<text x="288.7" y="446" text-anchor="middle" class="tick">8</text>
<text x="495.3" y="446" text-anchor="middle" class="tick">16</text>
<text x="702.0" y="446" text-anchor="middle" class="tick">32</text>
<text x="392.0" y="487" text-anchor="middle" class="label">Query length (tokens)</text>
<text x="20" y="240.5" text-anchor="middle" transform="rotate(-90 20 240.5)" class="label">DSP latency (us)</text>
<polyline points="82.0,304.8 288.7,270.3 495.3,222.2 702.0,124.8" fill="none" stroke="#252a31" stroke-width="2.5"/>
<line x1="82.0" y1="302.6" x2="82.0" y2="311.6" stroke="#252a31"/>
<line x1="78.0" y1="302.6" x2="86.0" y2="302.6" stroke="#252a31"/>
<line x1="78.0" y1="311.6" x2="86.0" y2="311.6" stroke="#252a31"/>
<circle cx="82.0" cy="304.8" r="4" fill="#252a31"/>
<line x1="288.7" y1="268.0" x2="288.7" y2="286.6" stroke="#252a31"/>
<line x1="284.7" y1="268.0" x2="292.7" y2="268.0" stroke="#252a31"/>
<line x1="284.7" y1="286.6" x2="292.7" y2="286.6" stroke="#252a31"/>
<circle cx="288.7" cy="270.3" r="4" fill="#252a31"/>
<line x1="495.3" y1="219.6" x2="495.3" y2="227.4" stroke="#252a31"/>
<line x1="491.3" y1="219.6" x2="499.3" y2="219.6" stroke="#252a31"/>
<line x1="491.3" y1="227.4" x2="499.3" y2="227.4" stroke="#252a31"/>
<circle cx="495.3" cy="222.2" r="4" fill="#252a31"/>
<line x1="702.0" y1="124.3" x2="702.0" y2="126.0" stroke="#252a31"/>
<line x1="698.0" y1="124.3" x2="706.0" y2="124.3" stroke="#252a31"/>
<line x1="698.0" y1="126.0" x2="706.0" y2="126.0" stroke="#252a31"/>
<circle cx="702.0" cy="124.8" r="4" fill="#252a31"/>
<line x1="724" y1="82" x2="752" y2="82" stroke="#252a31" stroke-width="2.5"/>
<circle cx="738" cy="82" r="4" fill="#252a31"/>
<text x="760" y="86" class="legend">Original HVX exp2</text>
<polyline points="82.0,306.3 288.7,310.3 495.3,272.4 702.0,215.0" fill="none" stroke="#7c3aed" stroke-width="2.5"/>
<line x1="82.0" y1="304.7" x2="82.0" y2="309.9" stroke="#7c3aed"/>
<line x1="78.0" y1="304.7" x2="86.0" y2="304.7" stroke="#7c3aed"/>
<line x1="78.0" y1="309.9" x2="86.0" y2="309.9" stroke="#7c3aed"/>
<circle cx="82.0" cy="306.3" r="4" fill="#7c3aed"/>
<line x1="288.7" y1="294.7" x2="288.7" y2="322.1" stroke="#7c3aed"/>
<line x1="284.7" y1="294.7" x2="292.7" y2="294.7" stroke="#7c3aed"/>
<line x1="284.7" y1="322.1" x2="292.7" y2="322.1" stroke="#7c3aed"/>
<circle cx="288.7" cy="310.3" r="4" fill="#7c3aed"/>
<line x1="495.3" y1="269.6" x2="495.3" y2="274.7" stroke="#7c3aed"/>
<line x1="491.3" y1="269.6" x2="499.3" y2="269.6" stroke="#7c3aed"/>
<line x1="491.3" y1="274.7" x2="499.3" y2="274.7" stroke="#7c3aed"/>
<circle cx="495.3" cy="272.4" r="4" fill="#7c3aed"/>
<line x1="702.0" y1="211.2" x2="702.0" y2="216.7" stroke="#7c3aed"/>
<line x1="698.0" y1="211.2" x2="706.0" y2="211.2" stroke="#7c3aed"/>
<line x1="698.0" y1="216.7" x2="706.0" y2="216.7" stroke="#7c3aed"/>
<circle cx="702.0" cy="215.0" r="4" fill="#7c3aed"/>
<line x1="724" y1="113" x2="752" y2="113" stroke="#7c3aed" stroke-width="2.5"/>
<circle cx="738" cy="113" r="4" fill="#7c3aed"/>
<text x="760" y="117" class="legend">exp-LUT</text>
<polyline points="82.0,287.9 288.7,264.2 495.3,212.3 702.0,98.1" fill="none" stroke="#d4553d" stroke-width="2.5"/>
<line x1="82.0" y1="285.0" x2="82.0" y2="288.9" stroke="#d4553d"/>
<line x1="78.0" y1="285.0" x2="86.0" y2="285.0" stroke="#d4553d"/>
<line x1="78.0" y1="288.9" x2="86.0" y2="288.9" stroke="#d4553d"/>
<circle cx="82.0" cy="287.9" r="4" fill="#d4553d"/>
<line x1="288.7" y1="261.1" x2="288.7" y2="265.4" stroke="#d4553d"/>
<line x1="284.7" y1="261.1" x2="292.7" y2="261.1" stroke="#d4553d"/>
<line x1="284.7" y1="265.4" x2="292.7" y2="265.4" stroke="#d4553d"/>
<circle cx="288.7" cy="264.2" r="4" fill="#d4553d"/>
<line x1="495.3" y1="210.8" x2="495.3" y2="217.8" stroke="#d4553d"/>
<line x1="491.3" y1="210.8" x2="499.3" y2="210.8" stroke="#d4553d"/>
<line x1="491.3" y1="217.8" x2="499.3" y2="217.8" stroke="#d4553d"/>
<circle cx="495.3" cy="212.3" r="4" fill="#d4553d"/>
<line x1="702.0" y1="97.1" x2="702.0" y2="103.1" stroke="#d4553d"/>
<line x1="698.0" y1="97.1" x2="706.0" y2="97.1" stroke="#d4553d"/>
<line x1="698.0" y1="103.1" x2="706.0" y2="103.1" stroke="#d4553d"/>
<circle cx="702.0" cy="98.1" r="4" fill="#d4553d"/>
<line x1="724" y1="144" x2="752" y2="144" stroke="#d4553d" stroke-width="2.5"/>
<circle cx="738" cy="144" r="4" fill="#d4553d"/>
<text x="760" y="148" class="legend">scna-fp16 exp tree d8 off</text>
<polyline points="82.0,356.6 288.7,321.2 495.3,265.0 702.0,159.5" fill="none" stroke="#178f86" stroke-width="2.5"/>
<line x1="82.0" y1="356.1" x2="82.0" y2="357.2" stroke="#178f86"/>
<line x1="78.0" y1="356.1" x2="86.0" y2="356.1" stroke="#178f86"/>
<line x1="78.0" y1="357.2" x2="86.0" y2="357.2" stroke="#178f86"/>
<circle cx="82.0" cy="356.6" r="4" fill="#178f86"/>
<line x1="288.7" y1="315.8" x2="288.7" y2="327.6" stroke="#178f86"/>
<line x1="284.7" y1="315.8" x2="292.7" y2="315.8" stroke="#178f86"/>
<line x1="284.7" y1="327.6" x2="292.7" y2="327.6" stroke="#178f86"/>
<circle cx="288.7" cy="321.2" r="4" fill="#178f86"/>
<line x1="495.3" y1="263.9" x2="495.3" y2="265.8" stroke="#178f86"/>
<line x1="491.3" y1="263.9" x2="499.3" y2="263.9" stroke="#178f86"/>
<line x1="491.3" y1="265.8" x2="499.3" y2="265.8" stroke="#178f86"/>
<circle cx="495.3" cy="265.0" r="4" fill="#178f86"/>
<line x1="702.0" y1="157.9" x2="702.0" y2="161.3" stroke="#178f86"/>
<line x1="698.0" y1="157.9" x2="706.0" y2="157.9" stroke="#178f86"/>
<line x1="698.0" y1="161.3" x2="706.0" y2="161.3" stroke="#178f86"/>
<circle cx="702.0" cy="159.5" r="4" fill="#178f86"/>
<line x1="724" y1="175" x2="752" y2="175" stroke="#178f86" stroke-width="2.5"/>
<circle cx="738" cy="175" r="4" fill="#178f86"/>
<text x="760" y="179" class="legend">scna-fp16 exp tree d8 on</text>
</svg>
