<svg xmlns="http://www.w3.org/2000/svg" width="1160" height="610" viewBox="0 0 1160 610">
<rect width="100%" height="100%" fill="#ffffff"/>
<style>text{font-family:Arial,sans-serif;fill:#222;letter-spacing:0}.title{font-size:24px;font-weight:700}.subtitle{font-size:13px;fill:#555}.axis{font-size:12px}.panel{font-size:15px;font-weight:700}.legend{font-size:13px}.grid{stroke:#d9dde3;stroke-width:1}.axisline{stroke:#343a40;stroke-width:1.2}</style>
<text x="580.0" y="32" text-anchor="middle" class="title">Host latency decomposition</text>
<text x="580.0" y="53" text-anchor="middle" class="subtitle">Median DSP dispatch plus host-side residual; unpinned placement</text>
<rect x="420" y="72" width="18" height="12" fill="#76b7b2"/><text x="445" y="83" class="legend">DSP dispatch</text>
<rect x="580" y="72" width="18" height="12" fill="#f28e2b"/><text x="605" y="83" class="legend">Host control residual</text>
<line x1="95" y1="520.0" x2="1120" y2="520.0" class="grid"/>
<text x="85" y="524.0" text-anchor="end" class="axis">0</text>
<line x1="95" y1="438.0" x2="1120" y2="438.0" class="grid"/>
<text x="85" y="442.0" text-anchor="end" class="axis">1000</text>
<line x1="95" y1="356.0" x2="1120" y2="356.0" class="grid"/>
<text x="85" y="360.0" text-anchor="end" class="axis">2000</text>
<line x1="95" y1="274.0" x2="1120" y2="274.0" class="grid"/>
<text x="85" y="278.0" text-anchor="end" class="axis">3000</text>
<line x1="95" y1="192.0" x2="1120" y2="192.0" class="grid"/>
<text x="85" y="196.0" text-anchor="end" class="axis">4000</text>
<line x1="95" y1="110.0" x2="1120" y2="110.0" class="grid"/>
<text x="85" y="114.0" text-anchor="end" class="axis">5000</text>
<line x1="95" y1="110" x2="95" y2="520" class="axisline"/>
<line x1="95" y1="520" x2="1120" y2="520" class="axisline"/>
<rect x="123.6" y="437.0" width="55" height="83.0" fill="#76b7b2"/>
<rect x="123.6" y="429.6" width="55" height="7.4" fill="#f28e2b"/>
<text x="151.1" y="538" text-anchor="middle" class="axis">lega</text>
<rect x="195.6" y="430.7" width="55" height="89.3" fill="#76b7b2"/>
<rect x="195.6" y="428.2" width="55" height="2.5" fill="#f28e2b"/>
<text x="223.1" y="538" text-anchor="middle" class="axis">spin</text>
<rect x="267.6" y="444.3" width="55" height="75.7" fill="#76b7b2"/>
<rect x="267.6" y="443.2" width="55" height="1.0" fill="#f28e2b"/>
<text x="295.1" y="538" text-anchor="middle" class="axis">pred</text>
<text x="223.1" y="563" text-anchor="middle" class="panel">q=4</text>
<rect x="379.9" y="416.5" width="55" height="103.5" fill="#76b7b2"/>
<rect x="379.9" y="409.3" width="55" height="7.1" fill="#f28e2b"/>
<text x="407.4" y="538" text-anchor="middle" class="axis">lega</text>
<rect x="451.9" y="429.0" width="55" height="91.0" fill="#76b7b2"/>
<rect x="451.9" y="426.4" width="55" height="2.6" fill="#f28e2b"/>
<text x="479.4" y="538" text-anchor="middle" class="axis">spin</text>
<rect x="523.9" y="413.6" width="55" height="106.4" fill="#76b7b2"/>
<rect x="523.9" y="412.3" width="55" height="1.3" fill="#f28e2b"/>
<text x="551.4" y="538" text-anchor="middle" class="axis">pred</text>
<text x="479.4" y="563" text-anchor="middle" class="panel">q=8</text>
<rect x="636.1" y="391.1" width="55" height="128.9" fill="#76b7b2"/>
<rect x="636.1" y="386.1" width="55" height="5.0" fill="#f28e2b"/>
<text x="663.6" y="538" text-anchor="middle" class="axis">lega</text>
<rect x="708.1" y="402.9" width="55" height="117.1" fill="#76b7b2"/>
<rect x="708.1" y="401.8" width="55" height="1.1" fill="#f28e2b"/>
<text x="735.6" y="538" text-anchor="middle" class="axis">spin</text>
<rect x="780.1" y="389.3" width="55" height="130.7" fill="#76b7b2"/>
<rect x="780.1" y="387.9" width="55" height="1.3" fill="#f28e2b"/>
<text x="807.6" y="538" text-anchor="middle" class="axis">pred</text>
<text x="735.6" y="563" text-anchor="middle" class="panel">q=16</text>
<rect x="892.4" y="333.9" width="55" height="186.1" fill="#76b7b2"/>
<rect x="892.4" y="324.7" width="55" height="9.2" fill="#f28e2b"/>
<text x="919.9" y="538" text-anchor="middle" class="axis">lega</text>
<rect x="964.4" y="353.0" width="55" height="167.0" fill="#76b7b2"/>
<rect x="964.4" y="351.5" width="55" height="1.5" fill="#f28e2b"/>
<text x="991.9" y="538" text-anchor="middle" class="axis">spin</text>
<rect x="1036.4" y="352.6" width="55" height="167.4" fill="#76b7b2"/>
<rect x="1036.4" y="351.6" width="55" height="0.9" fill="#f28e2b"/>
<text x="1063.9" y="538" text-anchor="middle" class="axis">pred</text>
<text x="991.9" y="563" text-anchor="middle" class="panel">q=32</text>
<text x="24" y="315.0" transform="rotate(-90 24 315.0)" text-anchor="middle" class="axis">Host wall latency (us)</text>
<text x="607.5" y="590" text-anchor="middle" class="axis">Wait policy grouped by query length</text>
</svg>
