<svg xmlns="http://www.w3.org/2000/svg" width="1160" height="865" viewBox="0 0 1160 865">
<rect width="100%" height="100%" fill="#ffffff"/>
<style>text{font-family:Arial,sans-serif;fill:#222;letter-spacing:0}.title{font-size:24px;font-weight:700}.subtitle{font-size:13px;fill:#555}.axis{font-size:12px}.panel{font-size:15px;font-weight:700}.legend{font-size:13px}.grid{stroke:#d9dde3;stroke-width:1}.axisline{stroke:#343a40;stroke-width:1.2}</style>
<text x="580.0" y="32" text-anchor="middle" class="title">Synchronization speedup relative to legacy polling</text>
<text x="580.0" y="53" text-anchor="middle" class="subtitle">Values above 1.0 improve host wall latency; error bars are bootstrap 95% intervals</text>
<line x1="425.0" y1="78" x2="449.0" y2="78" stroke="#4e79a7" stroke-width="3"/>
<text x="456.0" y="82" class="legend">legacy</text>
<line x1="580.0" y1="78" x2="604.0" y2="78" stroke="#e15759" stroke-width="3"/>
<text x="611.0" y="82" class="legend">spin</text>
<line x1="735.0" y1="78" x2="759.0" y2="78" stroke="#59a14f" stroke-width="3"/>
<text x="766.0" y="82" class="legend">predictive</text>
<text x="105" y="93" class="panel">Unpinned</text>
<line x1="105" y1="280.0" x2="1115" y2="280.0" class="grid"/>
<text x="95" y="284.0" text-anchor="end" class="axis">0.00</text>
<line x1="105" y1="236.2" x2="1115" y2="236.2" class="grid"/>
<text x="95" y="240.2" text-anchor="end" class="axis">0.35</text>
<line x1="105" y1="192.5" x2="1115" y2="192.5" class="grid"/>
<text x="95" y="196.5" text-anchor="end" class="axis">0.70</text>
<line x1="105" y1="148.8" x2="1115" y2="148.8" class="grid"/>
<text x="95" y="152.8" text-anchor="end" class="axis">1.05</text>
<line x1="105" y1="105.0" x2="1115" y2="105.0" class="grid"/>
<text x="95" y="109.0" text-anchor="end" class="axis">1.40</text>
<line x1="105" y1="105" x2="105" y2="280" class="axisline"/>
<line x1="105" y1="280" x2="1115" y2="280" class="axisline"/>
<text x="231.2" y="300" text-anchor="middle" class="axis">4</text>
<text x="483.8" y="300" text-anchor="middle" class="axis">8</text>
<text x="736.2" y="300" text-anchor="middle" class="axis">16</text>
<text x="988.8" y="300" text-anchor="middle" class="axis">32</text>
<path d="M 231.2 155.0 L 483.8 155.0 L 736.2 155.0 L 988.8 155.0" fill="none" stroke="#4e79a7" stroke-width="2.5"/>
<line x1="231.2" y1="155.0" x2="231.2" y2="155.0" stroke="#4e79a7" stroke-width="1.2"/>
<line x1="227.2" y1="155.0" x2="235.2" y2="155.0" stroke="#4e79a7"/>
<line x1="227.2" y1="155.0" x2="235.2" y2="155.0" stroke="#4e79a7"/>
<circle cx="231.2" cy="155.0" r="4" fill="#4e79a7"/>
<line x1="483.8" y1="155.0" x2="483.8" y2="155.0" stroke="#4e79a7" stroke-width="1.2"/>
<line x1="479.8" y1="155.0" x2="487.8" y2="155.0" stroke="#4e79a7"/>
<line x1="479.8" y1="155.0" x2="487.8" y2="155.0" stroke="#4e79a7"/>
<circle cx="483.8" cy="155.0" r="4" fill="#4e79a7"/>
<line x1="736.2" y1="155.0" x2="736.2" y2="155.0" stroke="#4e79a7" stroke-width="1.2"/>
<line x1="732.2" y1="155.0" x2="740.2" y2="155.0" stroke="#4e79a7"/>
<line x1="732.2" y1="155.0" x2="740.2" y2="155.0" stroke="#4e79a7"/>
<circle cx="736.2" cy="155.0" r="4" fill="#4e79a7"/>
<line x1="988.8" y1="155.0" x2="988.8" y2="155.0" stroke="#4e79a7" stroke-width="1.2"/>
<line x1="984.8" y1="155.0" x2="992.8" y2="155.0" stroke="#4e79a7"/>
<line x1="984.8" y1="155.0" x2="992.8" y2="155.0" stroke="#4e79a7"/>
<circle cx="988.8" cy="155.0" r="4" fill="#4e79a7"/>
<path d="M 231.2 156.8 L 483.8 132.3 L 736.2 138.3 L 988.8 135.1" fill="none" stroke="#e15759" stroke-width="2.5"/>
<line x1="231.2" y1="161.9" x2="231.2" y2="146.2" stroke="#e15759" stroke-width="1.2"/>
<line x1="227.2" y1="161.9" x2="235.2" y2="161.9" stroke="#e15759"/>
<line x1="227.2" y1="146.2" x2="235.2" y2="146.2" stroke="#e15759"/>
<circle cx="231.2" cy="156.8" r="4" fill="#e15759"/>
<line x1="483.8" y1="135.3" x2="483.8" y2="125.8" stroke="#e15759" stroke-width="1.2"/>
<line x1="479.8" y1="135.3" x2="487.8" y2="135.3" stroke="#e15759"/>
<line x1="479.8" y1="125.8" x2="487.8" y2="125.8" stroke="#e15759"/>
<circle cx="483.8" cy="132.3" r="4" fill="#e15759"/>
<line x1="736.2" y1="142.1" x2="736.2" y2="135.6" stroke="#e15759" stroke-width="1.2"/>
<line x1="732.2" y1="142.1" x2="740.2" y2="142.1" stroke="#e15759"/>
<line x1="732.2" y1="135.6" x2="740.2" y2="135.6" stroke="#e15759"/>
<circle cx="736.2" cy="138.3" r="4" fill="#e15759"/>
<line x1="988.8" y1="138.0" x2="988.8" y2="133.7" stroke="#e15759" stroke-width="1.2"/>
<line x1="984.8" y1="138.0" x2="992.8" y2="138.0" stroke="#e15759"/>
<line x1="984.8" y1="133.7" x2="992.8" y2="133.7" stroke="#e15759"/>
<circle cx="988.8" cy="135.1" r="4" fill="#e15759"/>
<path d="M 231.2 132.8 L 483.8 151.6 L 736.2 153.2 L 988.8 135.0" fill="none" stroke="#59a14f" stroke-width="2.5"/>
<line x1="231.2" y1="138.5" x2="231.2" y2="126.9" stroke="#59a14f" stroke-width="1.2"/>
<line x1="227.2" y1="138.5" x2="235.2" y2="138.5" stroke="#59a14f"/>
<line x1="227.2" y1="126.9" x2="235.2" y2="126.9" stroke="#59a14f"/>
<circle cx="231.2" cy="132.8" r="4" fill="#59a14f"/>
<line x1="483.8" y1="154.0" x2="483.8" y2="149.3" stroke="#59a14f" stroke-width="1.2"/>
<line x1="479.8" y1="154.0" x2="487.8" y2="154.0" stroke="#59a14f"/>
<line x1="479.8" y1="149.3" x2="487.8" y2="149.3" stroke="#59a14f"/>
<circle cx="483.8" cy="151.6" r="4" fill="#59a14f"/>
<line x1="736.2" y1="154.5" x2="736.2" y2="150.3" stroke="#59a14f" stroke-width="1.2"/>
<line x1="732.2" y1="154.5" x2="740.2" y2="154.5" stroke="#59a14f"/>
<line x1="732.2" y1="150.3" x2="740.2" y2="150.3" stroke="#59a14f"/>
<circle cx="736.2" cy="153.2" r="4" fill="#59a14f"/>
<line x1="988.8" y1="138.8" x2="988.8" y2="133.1" stroke="#59a14f" stroke-width="1.2"/>
<line x1="984.8" y1="138.8" x2="992.8" y2="138.8" stroke="#59a14f"/>
<line x1="984.8" y1="133.1" x2="992.8" y2="133.1" stroke="#59a14f"/>
<circle cx="988.8" cy="135.0" r="4" fill="#59a14f"/>
<text x="24" y="192.5" transform="rotate(-90 24 192.5)" text-anchor="middle" class="axis">Speedup (x)</text>
<text x="610.0" y="320" text-anchor="middle" class="axis">Query length qo_len (tokens)</text>
<text x="105" y="328" class="panel">High Capacity CPU6</text>
<line x1="105" y1="515.0" x2="1115" y2="515.0" class="grid"/>
<text x="95" y="519.0" text-anchor="end" class="axis">0.00</text>
<line x1="105" y1="471.2" x2="1115" y2="471.2" class="grid"/>
<text x="95" y="475.2" text-anchor="end" class="axis">0.35</text>
<line x1="105" y1="427.5" x2="1115" y2="427.5" class="grid"/>
<text x="95" y="431.5" text-anchor="end" class="axis">0.70</text>
<line x1="105" y1="383.8" x2="1115" y2="383.8" class="grid"/>
<text x="95" y="387.8" text-anchor="end" class="axis">1.05</text>
<line x1="105" y1="340.0" x2="1115" y2="340.0" class="grid"/>
<text x="95" y="344.0" text-anchor="end" class="axis">1.40</text>
<line x1="105" y1="340" x2="105" y2="515" class="axisline"/>
<line x1="105" y1="515" x2="1115" y2="515" class="axisline"/>
<text x="231.2" y="535" text-anchor="middle" class="axis">4</text>
<text x="483.8" y="535" text-anchor="middle" class="axis">8</text>
<text x="736.2" y="535" text-anchor="middle" class="axis">16</text>
<text x="988.8" y="535" text-anchor="middle" class="axis">32</text>
<path d="M 231.2 390.0 L 483.8 390.0 L 736.2 390.0 L 988.8 390.0" fill="none" stroke="#4e79a7" stroke-width="2.5"/>
<line x1="231.2" y1="390.0" x2="231.2" y2="390.0" stroke="#4e79a7" stroke-width="1.2"/>
<line x1="227.2" y1="390.0" x2="235.2" y2="390.0" stroke="#4e79a7"/>
<line x1="227.2" y1="390.0" x2="235.2" y2="390.0" stroke="#4e79a7"/>
<circle cx="231.2" cy="390.0" r="4" fill="#4e79a7"/>
<line x1="483.8" y1="390.0" x2="483.8" y2="390.0" stroke="#4e79a7" stroke-width="1.2"/>
<line x1="479.8" y1="390.0" x2="487.8" y2="390.0" stroke="#4e79a7"/>
<line x1="479.8" y1="390.0" x2="487.8" y2="390.0" stroke="#4e79a7"/>
<circle cx="483.8" cy="390.0" r="4" fill="#4e79a7"/>
<line x1="736.2" y1="390.0" x2="736.2" y2="390.0" stroke="#4e79a7" stroke-width="1.2"/>
<line x1="732.2" y1="390.0" x2="740.2" y2="390.0" stroke="#4e79a7"/>
<line x1="732.2" y1="390.0" x2="740.2" y2="390.0" stroke="#4e79a7"/>
<circle cx="736.2" cy="390.0" r="4" fill="#4e79a7"/>
<line x1="988.8" y1="390.0" x2="988.8" y2="390.0" stroke="#4e79a7" stroke-width="1.2"/>
<line x1="984.8" y1="390.0" x2="992.8" y2="390.0" stroke="#4e79a7"/>
<line x1="984.8" y1="390.0" x2="992.8" y2="390.0" stroke="#4e79a7"/>
<circle cx="988.8" cy="390.0" r="4" fill="#4e79a7"/>
<path d="M 231.2 369.1 L 483.8 363.5 L 736.2 358.0 L 988.8 369.5" fill="none" stroke="#e15759" stroke-width="2.5"/>
<line x1="231.2" y1="369.3" x2="231.2" y2="368.7" stroke="#e15759" stroke-width="1.2"/>
<line x1="227.2" y1="369.3" x2="235.2" y2="369.3" stroke="#e15759"/>
<line x1="227.2" y1="368.7" x2="235.2" y2="368.7" stroke="#e15759"/>
<circle cx="231.2" cy="369.1" r="4" fill="#e15759"/>
<line x1="483.8" y1="364.2" x2="483.8" y2="354.0" stroke="#e15759" stroke-width="1.2"/>
<line x1="479.8" y1="364.2" x2="487.8" y2="364.2" stroke="#e15759"/>
<line x1="479.8" y1="354.0" x2="487.8" y2="354.0" stroke="#e15759"/>
<circle cx="483.8" cy="363.5" r="4" fill="#e15759"/>
<line x1="736.2" y1="365.1" x2="736.2" y2="357.2" stroke="#e15759" stroke-width="1.2"/>
<line x1="732.2" y1="365.1" x2="740.2" y2="365.1" stroke="#e15759"/>
<line x1="732.2" y1="357.2" x2="740.2" y2="357.2" stroke="#e15759"/>
<circle cx="736.2" cy="358.0" r="4" fill="#e15759"/>
<line x1="988.8" y1="371.5" x2="988.8" y2="368.2" stroke="#e15759" stroke-width="1.2"/>
<line x1="984.8" y1="371.5" x2="992.8" y2="371.5" stroke="#e15759"/>
<line x1="984.8" y1="368.2" x2="992.8" y2="368.2" stroke="#e15759"/>
<circle cx="988.8" cy="369.5" r="4" fill="#e15759"/>
<path d="M 231.2 392.6 L 483.8 387.1 L 736.2 387.5 L 988.8 391.8" fill="none" stroke="#59a14f" stroke-width="2.5"/>
<line x1="231.2" y1="392.8" x2="231.2" y2="392.0" stroke="#59a14f" stroke-width="1.2"/>
<line x1="227.2" y1="392.8" x2="235.2" y2="392.8" stroke="#59a14f"/>
<line x1="227.2" y1="392.0" x2="235.2" y2="392.0" stroke="#59a14f"/>
<circle cx="231.2" cy="392.6" r="4" fill="#59a14f"/>
<line x1="483.8" y1="387.7" x2="483.8" y2="386.8" stroke="#59a14f" stroke-width="1.2"/>
<line x1="479.8" y1="387.7" x2="487.8" y2="387.7" stroke="#59a14f"/>
<line x1="479.8" y1="386.8" x2="487.8" y2="386.8" stroke="#59a14f"/>
<circle cx="483.8" cy="387.1" r="4" fill="#59a14f"/>
<line x1="736.2" y1="393.1" x2="736.2" y2="387.2" stroke="#59a14f" stroke-width="1.2"/>
<line x1="732.2" y1="393.1" x2="740.2" y2="393.1" stroke="#59a14f"/>
<line x1="732.2" y1="387.2" x2="740.2" y2="387.2" stroke="#59a14f"/>
<circle cx="736.2" cy="387.5" r="4" fill="#59a14f"/>
<line x1="988.8" y1="392.3" x2="988.8" y2="390.7" stroke="#59a14f" stroke-width="1.2"/>
<line x1="984.8" y1="392.3" x2="992.8" y2="392.3" stroke="#59a14f"/>
<line x1="984.8" y1="390.7" x2="992.8" y2="390.7" stroke="#59a14f"/>
<circle cx="988.8" cy="391.8" r="4" fill="#59a14f"/>
<text x="24" y="427.5" transform="rotate(-90 24 427.5)" text-anchor="middle" class="axis">Speedup (x)</text>
<text x="610.0" y="555" text-anchor="middle" class="axis">Query length qo_len (tokens)</text>
<text x="105" y="563" class="panel">Low Capacity CPU0</text>
<line x1="105" y1="750.0" x2="1115" y2="750.0" class="grid"/>
<text x="95" y="754.0" text-anchor="end" class="axis">0.00</text>
<line x1="105" y1="706.2" x2="1115" y2="706.2" class="grid"/>
<text x="95" y="710.2" text-anchor="end" class="axis">0.35</text>
<line x1="105" y1="662.5" x2="1115" y2="662.5" class="grid"/>
<text x="95" y="666.5" text-anchor="end" class="axis">0.70</text>
<line x1="105" y1="618.8" x2="1115" y2="618.8" class="grid"/>
<text x="95" y="622.8" text-anchor="end" class="axis">1.05</text>
<line x1="105" y1="575.0" x2="1115" y2="575.0" class="grid"/>
<text x="95" y="579.0" text-anchor="end" class="axis">1.40</text>
<line x1="105" y1="575" x2="105" y2="750" class="axisline"/>
<line x1="105" y1="750" x2="1115" y2="750" class="axisline"/>
<text x="231.2" y="770" text-anchor="middle" class="axis">4</text>
<text x="483.8" y="770" text-anchor="middle" class="axis">8</text>
<text x="736.2" y="770" text-anchor="middle" class="axis">16</text>
<text x="988.8" y="770" text-anchor="middle" class="axis">32</text>
<path d="M 231.2 625.0 L 483.8 625.0 L 736.2 625.0 L 988.8 625.0" fill="none" stroke="#4e79a7" stroke-width="2.5"/>
<line x1="231.2" y1="625.0" x2="231.2" y2="625.0" stroke="#4e79a7" stroke-width="1.2"/>
<line x1="227.2" y1="625.0" x2="235.2" y2="625.0" stroke="#4e79a7"/>
<line x1="227.2" y1="625.0" x2="235.2" y2="625.0" stroke="#4e79a7"/>
<circle cx="231.2" cy="625.0" r="4" fill="#4e79a7"/>
<line x1="483.8" y1="625.0" x2="483.8" y2="625.0" stroke="#4e79a7" stroke-width="1.2"/>
<line x1="479.8" y1="625.0" x2="487.8" y2="625.0" stroke="#4e79a7"/>
<line x1="479.8" y1="625.0" x2="487.8" y2="625.0" stroke="#4e79a7"/>
<circle cx="483.8" cy="625.0" r="4" fill="#4e79a7"/>
<line x1="736.2" y1="625.0" x2="736.2" y2="625.0" stroke="#4e79a7" stroke-width="1.2"/>
<line x1="732.2" y1="625.0" x2="740.2" y2="625.0" stroke="#4e79a7"/>
<line x1="732.2" y1="625.0" x2="740.2" y2="625.0" stroke="#4e79a7"/>
<circle cx="736.2" cy="625.0" r="4" fill="#4e79a7"/>
<line x1="988.8" y1="625.0" x2="988.8" y2="625.0" stroke="#4e79a7" stroke-width="1.2"/>
<line x1="984.8" y1="625.0" x2="992.8" y2="625.0" stroke="#4e79a7"/>
<line x1="984.8" y1="625.0" x2="992.8" y2="625.0" stroke="#4e79a7"/>
<circle cx="988.8" cy="625.0" r="4" fill="#4e79a7"/>
<path d="M 231.2 596.3 L 483.8 600.6 L 736.2 603.0 L 988.8 608.1" fill="none" stroke="#e15759" stroke-width="2.5"/>
<line x1="231.2" y1="618.1" x2="231.2" y2="589.6" stroke="#e15759" stroke-width="1.2"/>
<line x1="227.2" y1="618.1" x2="235.2" y2="618.1" stroke="#e15759"/>
<line x1="227.2" y1="589.6" x2="235.2" y2="589.6" stroke="#e15759"/>
<circle cx="231.2" cy="596.3" r="4" fill="#e15759"/>
<line x1="483.8" y1="606.6" x2="483.8" y2="595.9" stroke="#e15759" stroke-width="1.2"/>
<line x1="479.8" y1="606.6" x2="487.8" y2="606.6" stroke="#e15759"/>
<line x1="479.8" y1="595.9" x2="487.8" y2="595.9" stroke="#e15759"/>
<circle cx="483.8" cy="600.6" r="4" fill="#e15759"/>
<line x1="736.2" y1="604.8" x2="736.2" y2="600.8" stroke="#e15759" stroke-width="1.2"/>
<line x1="732.2" y1="604.8" x2="740.2" y2="604.8" stroke="#e15759"/>
<line x1="732.2" y1="600.8" x2="740.2" y2="600.8" stroke="#e15759"/>
<circle cx="736.2" cy="603.0" r="4" fill="#e15759"/>
<line x1="988.8" y1="610.2" x2="988.8" y2="606.8" stroke="#e15759" stroke-width="1.2"/>
<line x1="984.8" y1="610.2" x2="992.8" y2="610.2" stroke="#e15759"/>
<line x1="984.8" y1="606.8" x2="992.8" y2="606.8" stroke="#e15759"/>
<circle cx="988.8" cy="608.1" r="4" fill="#e15759"/>
<path d="M 231.2 582.4 L 483.8 625.5 L 736.2 624.7 L 988.8 620.4" fill="none" stroke="#59a14f" stroke-width="2.5"/>
<line x1="231.2" y1="586.2" x2="231.2" y2="579.2" stroke="#59a14f" stroke-width="1.2"/>
<line x1="227.2" y1="586.2" x2="235.2" y2="586.2" stroke="#59a14f"/>
<line x1="227.2" y1="579.2" x2="235.2" y2="579.2" stroke="#59a14f"/>
<circle cx="231.2" cy="582.4" r="4" fill="#59a14f"/>
<line x1="483.8" y1="629.4" x2="483.8" y2="618.9" stroke="#59a14f" stroke-width="1.2"/>
<line x1="479.8" y1="629.4" x2="487.8" y2="629.4" stroke="#59a14f"/>
<line x1="479.8" y1="618.9" x2="487.8" y2="618.9" stroke="#59a14f"/>
<circle cx="483.8" cy="625.5" r="4" fill="#59a14f"/>
<line x1="736.2" y1="625.9" x2="736.2" y2="623.0" stroke="#59a14f" stroke-width="1.2"/>
<line x1="732.2" y1="625.9" x2="740.2" y2="625.9" stroke="#59a14f"/>
<line x1="732.2" y1="623.0" x2="740.2" y2="623.0" stroke="#59a14f"/>
<circle cx="736.2" cy="624.7" r="4" fill="#59a14f"/>
<line x1="988.8" y1="622.3" x2="988.8" y2="619.3" stroke="#59a14f" stroke-width="1.2"/>
<line x1="984.8" y1="622.3" x2="992.8" y2="622.3" stroke="#59a14f"/>
<line x1="984.8" y1="619.3" x2="992.8" y2="619.3" stroke="#59a14f"/>
<circle cx="988.8" cy="620.4" r="4" fill="#59a14f"/>
<text x="24" y="662.5" transform="rotate(-90 24 662.5)" text-anchor="middle" class="axis">Speedup (x)</text>
<text x="610.0" y="790" text-anchor="middle" class="axis">Query length qo_len (tokens)</text>
</svg>
