<svg xmlns="http://www.w3.org/2000/svg" width="1080" height="520">
<rect width="100%" height="100%" fill="white"/>
<text x="540.0" y="27" text-anchor="middle" font-family="sans-serif" font-size="19">Paired SCNA evaluator latency (30 DSP qtimer samples)</text>
<line x1="90" y1="420" x2="1050" y2="420" stroke="#333"/>
<line x1="90" y1="55" x2="90" y2="420" stroke="#333"/>
<text x="20" y="237.5" transform="rotate(-90 20 237.5)" text-anchor="middle" font-family="sans-serif" font-size="13">ns / 64 scores</text>
<line x1="90" y1="420.0" x2="1050" y2="420.0" stroke="#e5e5e5"/>
<text x="82" y="424.0" text-anchor="end" font-family="sans-serif" font-size="11">0.0</text>
<line x1="90" y1="347.0" x2="1050" y2="347.0" stroke="#e5e5e5"/>
<text x="82" y="351.0" text-anchor="end" font-family="sans-serif" font-size="11">32.4</text>
<line x1="90" y1="274.0" x2="1050" y2="274.0" stroke="#e5e5e5"/>
<text x="82" y="278.0" text-anchor="end" font-family="sans-serif" font-size="11">64.7</text>
<line x1="90" y1="201.0" x2="1050" y2="201.0" stroke="#e5e5e5"/>
<text x="82" y="205.0" text-anchor="end" font-family="sans-serif" font-size="11">97.1</text>
<line x1="90" y1="128.0" x2="1050" y2="128.0" stroke="#e5e5e5"/>
<text x="82" y="132.0" text-anchor="end" font-family="sans-serif" font-size="11">129.5</text>
<line x1="90" y1="55.0" x2="1050" y2="55.0" stroke="#e5e5e5"/>
<text x="82" y="59.0" text-anchor="end" font-family="sans-serif" font-size="11">161.9</text>
<rect x="116.9" y="327.0" width="113.4" height="93.0" fill="#3366cc"/>
<line x1="173.6" y1="327.0" x2="173.6" y2="327.0" stroke="#111"/>
<line x1="168.6" y1="327.0" x2="178.6" y2="327.0" stroke="#111"/>
<line x1="168.6" y1="327.0" x2="178.6" y2="327.0" stroke="#111"/>
<text x="173.6" y="320.0" text-anchor="middle" font-family="sans-serif" font-size="10">41.3</text>
<text x="186.0" y="444" text-anchor="middle" font-family="sans-serif" font-size="12">serial</text>
<rect x="308.9" y="117.7" width="113.4" height="302.3" fill="#3366cc"/>
<line x1="365.6" y1="117.7" x2="365.6" y2="117.7" stroke="#111"/>
<line x1="360.6" y1="117.7" x2="370.6" y2="117.7" stroke="#111"/>
<line x1="360.6" y1="117.7" x2="370.6" y2="117.7" stroke="#111"/>
<text x="365.6" y="110.7" text-anchor="middle" font-family="sans-serif" font-size="10">134.1</text>
<text x="378.0" y="444" text-anchor="middle" font-family="sans-serif" font-size="12">current</text>
<rect x="500.9" y="161.8" width="113.4" height="258.2" fill="#3366cc"/>
<line x1="557.6" y1="161.8" x2="557.6" y2="161.8" stroke="#111"/>
<line x1="552.6" y1="161.8" x2="562.6" y2="161.8" stroke="#111"/>
<line x1="552.6" y1="161.8" x2="562.6" y2="161.8" stroke="#111"/>
<text x="557.6" y="154.8" text-anchor="middle" font-family="sans-serif" font-size="10">114.5</text>
<text x="570.0" y="444" text-anchor="middle" font-family="sans-serif" font-size="12">sequential-pair</text>
<rect x="692.9" y="110.7" width="113.4" height="309.3" fill="#3366cc"/>
<line x1="749.6" y1="110.7" x2="749.6" y2="110.7" stroke="#111"/>
<line x1="744.6" y1="110.7" x2="754.6" y2="110.7" stroke="#111"/>
<line x1="744.6" y1="110.7" x2="754.6" y2="110.7" stroke="#111"/>
<text x="749.6" y="103.7" text-anchor="middle" font-family="sans-serif" font-size="10">137.2</text>
<text x="762.0" y="444" text-anchor="middle" font-family="sans-serif" font-size="12">split4-pair</text>
<rect x="884.9" y="147.9" width="113.4" height="272.1" fill="#3366cc"/>
<line x1="941.6" y1="147.9" x2="941.6" y2="147.9" stroke="#111"/>
<line x1="936.6" y1="147.9" x2="946.6" y2="147.9" stroke="#111"/>
<line x1="936.6" y1="147.9" x2="946.6" y2="147.9" stroke="#111"/>
<text x="941.6" y="140.9" text-anchor="middle" font-family="sans-serif" font-size="10">120.7</text>
<text x="954.0" y="444" text-anchor="middle" font-family="sans-serif" font-size="12">pack-once</text>
<rect x="90" y="480" width="13" height="13" fill="#3366cc"/>
<text x="108" y="491" font-family="sans-serif" font-size="12">median and bootstrap 95% CI</text>
</svg>
